<svg width="190" height="216" viewBox="0 0 190 216" fill="none" xmlns="http://www.w3.org/2000/svg">
<g filter="url(#filter0_d_29_252)">
<rect width="190" height="216" rx="30" fill="white"/>
</g>
<g clip-path="url(#clip0_29_252)">
<path fill-rule="evenodd" clip-rule="evenodd" d="M103.382 198.382C104.668 198.382 105.711 197.34 105.711 196.054C105.711 194.768 104.668 193.725 103.382 193.725C102.096 193.725 101.054 194.768 101.054 196.054C101.054 197.34 102.096 198.382 103.382 198.382Z" fill="#E1E1E1"/>
<path fill-rule="evenodd" clip-rule="evenodd" d="M94.9999 198.382C96.2859 198.382 97.3284 197.34 97.3284 196.054C97.3284 194.768 96.2859 193.725 94.9999 193.725C93.714 193.725 92.6715 194.768 92.6715 196.054C92.6715 197.34 93.714 198.382 94.9999 198.382Z" fill="#E1E1E1"/>
<path fill-rule="evenodd" clip-rule="evenodd" d="M86.6176 198.382C87.9036 198.382 88.946 197.34 88.946 196.054C88.946 194.768 87.9036 193.725 86.6176 193.725C85.3317 193.725 84.2892 194.768 84.2892 196.054C84.2892 197.34 85.3317 198.382 86.6176 198.382Z" fill="#292E47"/>
</g>
<path d="M24.6981 58.7434C24.6981 57.8567 24.9024 57.0613 25.311 56.3572C25.7282 55.6531 26.2889 55.1054 26.9931 54.7143C27.7059 54.3144 28.4839 54.1145 29.3271 54.1145C30.292 54.1145 31.1482 54.3535 31.8958 54.8316C32.6521 55.301 33.1997 55.9704 33.5387 56.8397H31.7524C31.5177 56.3616 31.1917 56.0051 30.7744 55.7704C30.3572 55.5357 29.8747 55.4184 29.3271 55.4184C28.7273 55.4184 28.1927 55.5531 27.7232 55.8226C27.2538 56.0921 26.8844 56.4789 26.6149 56.9831C26.3541 57.4873 26.2237 58.074 26.2237 58.7434C26.2237 59.4127 26.3541 59.9995 26.6149 60.5037C26.8844 61.0079 27.2538 61.399 27.7232 61.6772C28.1927 61.9467 28.7273 62.0814 29.3271 62.0814C29.8747 62.0814 30.3572 61.9641 30.7744 61.7294C31.1917 61.4947 31.5177 61.1383 31.7524 60.6601H33.5387C33.1997 61.5294 32.6521 62.1988 31.8958 62.6682C31.1482 63.1376 30.292 63.3723 29.3271 63.3723C28.4752 63.3723 27.6972 63.1767 26.9931 62.7855C26.2889 62.3857 25.7282 61.8337 25.311 61.1296C24.9024 60.4254 24.6981 59.63 24.6981 58.7434ZM38.9948 55.9921C39.5425 55.9921 40.0293 56.1095 40.4552 56.3442C40.8899 56.5789 41.2289 56.9266 41.4723 57.3873C41.7244 57.848 41.8504 58.4044 41.8504 59.0563V63.2941H40.377V59.278C40.377 58.6347 40.2162 58.1436 39.8945 57.8046C39.5729 57.4568 39.1339 57.283 38.5776 57.283C38.0212 57.283 37.5779 57.4568 37.2476 57.8046C36.9259 58.1436 36.7651 58.6347 36.7651 59.278V63.2941H35.2787V53.645H36.7651V56.944C37.0172 56.6397 37.3345 56.405 37.717 56.2399C38.1082 56.0747 38.5341 55.9921 38.9948 55.9921ZM46.8629 63.4114C46.1848 63.4114 45.572 63.2593 45.0244 62.955C44.4767 62.6421 44.0464 62.2075 43.7335 61.6511C43.4205 61.0861 43.2641 60.4341 43.2641 59.6952C43.2641 58.965 43.4249 58.3174 43.7465 57.7524C44.0681 57.1874 44.5071 56.7527 45.0635 56.4485C45.6198 56.1442 46.2413 55.9921 46.9281 55.9921C47.6148 55.9921 48.2363 56.1442 48.7927 56.4485C49.349 56.7527 49.788 57.1874 50.1096 57.7524C50.4313 58.3174 50.5921 58.965 50.5921 59.6952C50.5921 60.4254 50.4269 61.0731 50.0966 61.6381C49.7663 62.2031 49.3143 62.6421 48.7405 62.955C48.1755 63.2593 47.5496 63.4114 46.8629 63.4114ZM46.8629 62.1205C47.2454 62.1205 47.6018 62.0293 47.9321 61.8467C48.2711 61.6642 48.5449 61.3903 48.7536 61.0252C48.9622 60.6601 49.0665 60.2168 49.0665 59.6952C49.0665 59.1737 48.9665 58.7347 48.7666 58.3783C48.5667 58.0132 48.3015 57.7394 47.9712 57.5568C47.6409 57.3743 47.2845 57.283 46.902 57.283C46.5195 57.283 46.1631 57.3743 45.8328 57.5568C45.5111 57.7394 45.2547 58.0132 45.0635 58.3783C44.8722 58.7347 44.7766 59.1737 44.7766 59.6952C44.7766 60.4689 44.9722 61.0687 45.3634 61.4947C45.7632 61.9119 46.2631 62.1205 46.8629 62.1205ZM55.1779 63.4114C54.4999 63.4114 53.887 63.2593 53.3394 62.955C52.7917 62.6421 52.3615 62.2075 52.0485 61.6511C51.7356 61.0861 51.5791 60.4341 51.5791 59.6952C51.5791 58.965 51.7399 58.3174 52.0616 57.7524C52.3832 57.1874 52.8222 56.7527 53.3785 56.4485C53.9349 56.1442 54.5564 55.9921 55.2431 55.9921C55.9299 55.9921 56.5514 56.1442 57.1077 56.4485C57.6641 56.7527 58.1031 57.1874 58.4247 57.7524C58.7463 58.3174 58.9071 58.965 58.9071 59.6952C58.9071 60.4254 58.742 61.0731 58.4117 61.6381C58.0813 62.2031 57.6293 62.6421 57.0556 62.955C56.4905 63.2593 55.8647 63.4114 55.1779 63.4114ZM55.1779 62.1205C55.5604 62.1205 55.9168 62.0293 56.2471 61.8467C56.5862 61.6642 56.86 61.3903 57.0686 61.0252C57.2772 60.6601 57.3816 60.2168 57.3816 59.6952C57.3816 59.1737 57.2816 58.7347 57.0817 58.3783C56.8817 58.0132 56.6166 57.7394 56.2863 57.5568C55.9559 57.3743 55.5995 57.283 55.217 57.283C54.8346 57.283 54.4782 57.3743 54.1478 57.5568C53.8262 57.7394 53.5698 58.0132 53.3785 58.3783C53.1873 58.7347 53.0917 59.1737 53.0917 59.6952C53.0917 60.4689 53.2872 61.0687 53.6784 61.4947C54.0783 61.9119 54.5781 62.1205 55.1779 62.1205ZM62.9844 63.4114C62.4194 63.4114 61.9109 63.3115 61.4589 63.1115C61.0155 62.9029 60.6635 62.6247 60.4027 62.277C60.1419 61.9206 60.0028 61.5251 59.9854 61.0904H61.5241C61.5501 61.3947 61.6936 61.6511 61.9543 61.8598C62.2238 62.0597 62.5585 62.1597 62.9584 62.1597C63.3756 62.1597 63.6973 62.0814 63.9233 61.9249C64.158 61.7598 64.2753 61.5512 64.2753 61.2991C64.2753 61.0296 64.1449 60.8297 63.8841 60.6993C63.6321 60.5689 63.2278 60.4254 62.6715 60.269C62.1325 60.1212 61.6936 59.9778 61.3545 59.8387C61.0155 59.6996 60.72 59.4866 60.4679 59.1998C60.2245 58.9129 60.1028 58.5348 60.1028 58.0653C60.1028 57.6829 60.2158 57.3351 60.4418 57.0222C60.6678 56.7006 60.9894 56.4485 61.4067 56.2659C61.8326 56.0834 62.3194 55.9921 62.8671 55.9921C63.6842 55.9921 64.3405 56.2007 64.836 56.618C65.3402 57.0266 65.6097 57.5872 65.6444 58.3H64.158C64.1319 57.9784 64.0015 57.722 63.7668 57.5307C63.5321 57.3395 63.2148 57.2439 62.8149 57.2439C62.4238 57.2439 62.1239 57.3178 61.9152 57.4655C61.7066 57.6133 61.6023 57.8089 61.6023 58.0523C61.6023 58.2435 61.6718 58.4044 61.8109 58.5348C61.95 58.6651 62.1195 58.7695 62.3194 58.8477C62.5194 58.9172 62.8149 59.0085 63.2061 59.1215C63.7277 59.2606 64.1536 59.404 64.484 59.5518C64.823 59.6909 65.1142 59.8995 65.3576 60.1777C65.601 60.4559 65.727 60.8253 65.7357 61.286C65.7357 61.6946 65.6227 62.0597 65.3967 62.3813C65.1707 62.703 64.8491 62.955 64.4318 63.1376C64.0232 63.3201 63.5408 63.4114 62.9844 63.4114ZM73.9267 59.5257C73.9267 59.7952 73.9093 60.0386 73.8745 60.2559H68.385C68.4285 60.8297 68.6415 61.2904 69.0239 61.6381C69.4064 61.9858 69.8758 62.1597 70.4322 62.1597C71.2319 62.1597 71.7969 61.825 72.1273 61.1556H73.7311C73.5138 61.8163 73.1183 62.3596 72.5445 62.7855C71.9795 63.2028 71.2754 63.4114 70.4322 63.4114C69.7454 63.4114 69.1283 63.2593 68.5806 62.955C68.0417 62.6421 67.6157 62.2075 67.3028 61.6511C66.9985 61.0861 66.8464 60.4341 66.8464 59.6952C66.8464 58.9564 66.9942 58.3087 67.2897 57.7524C67.594 57.1874 68.0156 56.7527 68.5545 56.4485C69.1022 56.1442 69.7281 55.9921 70.4322 55.9921C71.1102 55.9921 71.7144 56.1399 72.2446 56.4354C72.7749 56.731 73.1878 57.1483 73.4834 57.6872C73.7789 58.2175 73.9267 58.8303 73.9267 59.5257ZM72.375 59.0563C72.3663 58.5087 72.1707 58.0697 71.7883 57.7394C71.4058 57.409 70.932 57.2439 70.367 57.2439C69.8541 57.2439 69.4151 57.409 69.05 57.7394C68.6849 58.061 68.4676 58.5 68.3981 59.0563H72.375ZM85.2441 56.1095L80.8369 66.6712H79.2982L80.7586 63.1767L77.9291 56.1095H79.5851L81.6062 61.5859L83.7055 56.1095H85.2441ZM89.4823 63.4114C88.8042 63.4114 88.1914 63.2593 87.6437 62.955C87.0961 62.6421 86.6658 62.2075 86.3529 61.6511C86.0399 61.0861 85.8834 60.4341 85.8834 59.6952C85.8834 58.965 86.0443 58.3174 86.3659 57.7524C86.6875 57.1874 87.1265 56.7527 87.6829 56.4485C88.2392 56.1442 88.8607 55.9921 89.5475 55.9921C90.2342 55.9921 90.8557 56.1442 91.4121 56.4485C91.9684 56.7527 92.4074 57.1874 92.729 57.7524C93.0507 58.3174 93.2115 58.965 93.2115 59.6952C93.2115 60.4254 93.0463 61.0731 92.716 61.6381C92.3857 62.2031 91.9336 62.6421 91.3599 62.955C90.7949 63.2593 90.169 63.4114 89.4823 63.4114ZM89.4823 62.1205C89.8648 62.1205 90.2212 62.0293 90.5515 61.8467C90.8905 61.6642 91.1643 61.3903 91.373 61.0252C91.5816 60.6601 91.6859 60.2168 91.6859 59.6952C91.6859 59.1737 91.5859 58.7347 91.386 58.3783C91.1861 58.0132 90.9209 57.7394 90.5906 57.5568C90.2603 57.3743 89.9039 57.283 89.5214 57.283C89.1389 57.283 88.7825 57.3743 88.4522 57.5568C88.1305 57.7394 87.8741 58.0132 87.6829 58.3783C87.4916 58.7347 87.396 59.1737 87.396 59.6952C87.396 60.4689 87.5916 61.0687 87.9828 61.4947C88.3826 61.9119 88.8825 62.1205 89.4823 62.1205ZM101.188 56.1095V63.2941H99.701V62.4465C99.4663 62.7421 99.1577 62.9768 98.7753 63.1506C98.4015 63.3158 98.0016 63.3984 97.5757 63.3984C97.0106 63.3984 96.5021 63.281 96.0501 63.0463C95.6067 62.8116 95.2547 62.4639 94.9939 62.0032C94.7418 61.5425 94.6157 60.9861 94.6157 60.3342V56.1095H96.0892V60.1125C96.0892 60.7558 96.25 61.2513 96.5716 61.599C96.8933 61.938 97.3323 62.1075 97.8886 62.1075C98.4449 62.1075 98.8839 61.938 99.2056 61.599C99.5359 61.2513 99.701 60.7558 99.701 60.1125V56.1095H101.188ZM104.635 57.1526C104.853 56.7875 105.139 56.505 105.496 56.305C105.861 56.0964 106.291 55.9921 106.787 55.9921V57.5307H106.409C105.826 57.5307 105.383 57.6785 105.079 57.9741C104.783 58.2696 104.635 58.7825 104.635 59.5127V63.2941H103.149V56.1095H104.635V57.1526ZM111.045 59.6952C111.045 58.9564 111.193 58.3087 111.488 57.7524C111.792 57.1874 112.21 56.7527 112.74 56.4485C113.27 56.1442 113.879 55.9921 114.565 55.9921C115.435 55.9921 116.152 56.2007 116.717 56.618C117.291 57.0266 117.677 57.6133 117.877 58.3783H116.273C116.143 58.0219 115.934 57.7437 115.648 57.5438C115.361 57.3438 115 57.2439 114.565 57.2439C113.957 57.2439 113.47 57.4612 113.105 57.8958C112.749 58.3218 112.57 58.9216 112.57 59.6952C112.57 60.4689 112.749 61.0731 113.105 61.5077C113.47 61.9423 113.957 62.1597 114.565 62.1597C115.426 62.1597 115.995 61.7815 116.273 61.0252H117.877C117.669 61.7554 117.277 62.3379 116.704 62.7725C116.13 63.1984 115.417 63.4114 114.565 63.4114C113.879 63.4114 113.27 63.2593 112.74 62.955C112.21 62.6421 111.792 62.2075 111.488 61.6511C111.193 61.0861 111.045 60.4341 111.045 59.6952ZM118.863 59.6692C118.863 58.9477 119.011 58.3087 119.307 57.7524C119.611 57.1961 120.019 56.7658 120.532 56.4615C121.054 56.1486 121.628 55.9921 122.253 55.9921C122.818 55.9921 123.31 56.1051 123.727 56.3311C124.153 56.5484 124.492 56.8223 124.744 57.1526V56.1095H126.243V63.2941H124.744V62.2249C124.492 62.5639 124.148 62.8464 123.714 63.0724C123.279 63.2984 122.784 63.4114 122.227 63.4114C121.61 63.4114 121.045 63.2549 120.532 62.942C120.019 62.6204 119.611 62.177 119.307 61.612C119.011 61.0383 118.863 60.3907 118.863 59.6692ZM124.744 59.6952C124.744 59.1998 124.64 58.7695 124.431 58.4044C124.231 58.0393 123.966 57.7611 123.636 57.5699C123.305 57.3786 122.949 57.283 122.566 57.283C122.184 57.283 121.827 57.3786 121.497 57.5699C121.167 57.7524 120.897 58.0262 120.689 58.3913C120.489 58.7477 120.389 59.1737 120.389 59.6692C120.389 60.1647 120.489 60.5993 120.689 60.9731C120.897 61.3469 121.167 61.6337 121.497 61.8337C121.836 62.0249 122.193 62.1205 122.566 62.1205C122.949 62.1205 123.305 62.0249 123.636 61.8337C123.966 61.6424 124.231 61.3643 124.431 60.9992C124.64 60.6254 124.744 60.1907 124.744 59.6952ZM129.682 57.1526C129.9 56.7875 130.186 56.505 130.543 56.305C130.908 56.0964 131.338 55.9921 131.834 55.9921V57.5307H131.456C130.873 57.5307 130.43 57.6785 130.126 57.9741C129.83 58.2696 129.682 58.7825 129.682 59.5127V63.2941H128.196V56.1095H129.682V57.1526ZM132.705 59.6692C132.705 58.9477 132.852 58.3087 133.148 57.7524C133.452 57.1961 133.861 56.7658 134.374 56.4615C134.895 56.1486 135.473 55.9921 136.108 55.9921C136.577 55.9921 137.038 56.0964 137.49 56.305C137.951 56.505 138.316 56.7745 138.585 57.1135V53.645H140.085V63.2941H138.585V62.2118C138.342 62.5595 138.003 62.8464 137.568 63.0724C137.142 63.2984 136.651 63.4114 136.095 63.4114C135.469 63.4114 134.895 63.2549 134.374 62.942C133.861 62.6204 133.452 62.177 133.148 61.612C132.852 61.0383 132.705 60.3907 132.705 59.6692ZM138.585 59.6952C138.585 59.1998 138.481 58.7695 138.272 58.4044C138.072 58.0393 137.807 57.7611 137.477 57.5699C137.147 57.3786 136.79 57.283 136.408 57.283C136.025 57.283 135.669 57.3786 135.339 57.5699C135.008 57.7524 134.739 58.0262 134.53 58.3913C134.33 58.7477 134.23 59.1737 134.23 59.6692C134.23 60.1647 134.33 60.5993 134.53 60.9731C134.739 61.3469 135.008 61.6337 135.339 61.8337C135.678 62.0249 136.034 62.1205 136.408 62.1205C136.79 62.1205 137.147 62.0249 137.477 61.8337C137.807 61.6424 138.072 61.3643 138.272 60.9992C138.481 60.6254 138.585 60.1907 138.585 59.6952Z" fill="#292E47"/>
<g filter="url(#filter1_dddd_29_252)">
<rect x="24.2157" y="78.2353" width="141.569" height="83.8235" rx="18.6275" fill="#072AC8"/>
</g>
<path d="M55.6915 103.357V103.112H55.6272L55.5528 103.28L55.4788 103.112H55.4141V103.357H55.4598V103.172L55.5293 103.332H55.5767L55.6462 103.172V103.357H55.6915ZM55.2834 103.357V103.154H55.3659V103.112H55.1556V103.154H55.2381V103.357H55.2834Z" fill="#F79410"/>
<path d="M48.4081 104.41H42.8661V94.4874H48.4081V104.41Z" fill="#FF5F00"/>
<path d="M43.221 99.4479C43.221 97.435 44.167 95.642 45.6401 94.4865C44.5629 93.6416 43.2033 93.1372 41.7257 93.1372C38.2277 93.1372 35.3922 95.9626 35.3922 99.4479C35.3922 102.933 38.2277 105.759 41.7257 105.759C43.2033 105.759 44.5629 105.254 45.6401 104.409C44.167 103.254 43.221 101.461 43.221 99.4479Z" fill="#EB001B"/>
<path d="M55.8826 99.4479C55.8826 102.933 53.0471 105.759 49.5491 105.759C48.0715 105.759 46.7119 105.254 45.6343 104.409C47.1078 103.254 48.0538 101.461 48.0538 99.4479C48.0538 97.435 47.1078 95.642 45.6343 94.4865C46.7119 93.6416 48.0715 93.1372 49.5491 93.1372C53.0471 93.1372 55.8826 95.9626 55.8826 99.4479Z" fill="#F79E1B"/>
<path d="M131.652 140.804C132.308 140.237 132.824 139.773 133.199 139.411C133.582 139.042 133.899 138.66 134.152 138.263C134.405 137.867 134.531 137.471 134.531 137.075C134.531 136.665 134.432 136.344 134.234 136.112C134.043 135.88 133.739 135.764 133.322 135.764C132.919 135.764 132.605 135.893 132.38 136.153C132.161 136.406 132.045 136.747 132.031 137.177H130.904C130.925 136.399 131.157 135.805 131.601 135.395C132.052 134.978 132.622 134.77 133.312 134.77C134.057 134.77 134.637 134.975 135.054 135.385C135.477 135.794 135.689 136.341 135.689 137.024C135.689 137.515 135.563 137.99 135.31 138.448C135.064 138.899 134.767 139.305 134.419 139.667C134.077 140.022 133.64 140.435 133.107 140.907L132.646 141.316H135.894V142.29H130.915V141.439L131.652 140.804ZM137.232 135.989V134.923H139.363V142.392H138.185V135.989H137.232ZM141.413 136.768C141.454 136.132 141.696 135.637 142.14 135.282C142.591 134.927 143.164 134.749 143.861 134.749C144.339 134.749 144.752 134.835 145.101 135.005C145.449 135.176 145.712 135.408 145.89 135.702C146.067 135.996 146.156 136.327 146.156 136.696C146.156 137.119 146.043 137.481 145.818 137.782C145.593 138.082 145.323 138.284 145.009 138.386V138.427C145.412 138.55 145.726 138.776 145.951 139.103C146.176 139.424 146.289 139.838 146.289 140.343C146.289 140.746 146.197 141.105 146.013 141.419C145.828 141.733 145.555 141.982 145.193 142.167C144.831 142.344 144.397 142.433 143.892 142.433C143.154 142.433 142.546 142.245 142.068 141.87C141.597 141.487 141.344 140.941 141.31 140.23H142.437C142.464 140.592 142.604 140.89 142.857 141.122C143.11 141.347 143.451 141.46 143.882 141.46C144.298 141.46 144.619 141.347 144.845 141.122C145.07 140.89 145.183 140.592 145.183 140.23C145.183 139.752 145.029 139.414 144.722 139.216C144.421 139.011 143.957 138.909 143.328 138.909H143.062V137.946H143.339C143.892 137.939 144.312 137.847 144.599 137.669C144.892 137.492 145.039 137.212 145.039 136.829C145.039 136.501 144.933 136.242 144.722 136.05C144.51 135.852 144.209 135.753 143.82 135.753C143.438 135.753 143.141 135.852 142.929 136.05C142.717 136.242 142.591 136.481 142.55 136.768H141.413ZM147.982 138.56C147.982 137.379 148.18 136.457 148.576 135.794C148.979 135.125 149.669 134.79 150.645 134.79C151.622 134.79 152.309 135.125 152.705 135.794C153.108 136.457 153.309 137.379 153.309 138.56C153.309 139.756 153.108 140.691 152.705 141.368C152.309 142.037 151.622 142.372 150.645 142.372C149.669 142.372 148.979 142.037 148.576 141.368C148.18 140.691 147.982 139.756 147.982 138.56ZM152.162 138.56C152.162 138.007 152.124 137.539 152.049 137.157C151.981 136.774 151.837 136.464 151.619 136.225C151.4 135.979 151.076 135.856 150.645 135.856C150.215 135.856 149.891 135.979 149.672 136.225C149.454 136.464 149.307 136.774 149.232 137.157C149.163 137.539 149.129 138.007 149.129 138.56C149.129 139.134 149.163 139.616 149.232 140.005C149.3 140.394 149.443 140.709 149.662 140.948C149.887 141.187 150.215 141.306 150.645 141.306C151.076 141.306 151.4 141.187 151.619 140.948C151.844 140.709 151.991 140.394 152.059 140.005C152.128 139.616 152.162 139.134 152.162 138.56Z" fill="#CCD0E8"/>
<circle opacity="0.3" cx="36.7893" cy="139.24" r="1.39706" fill="#CCD0E8"/>
<circle opacity="0.3" cx="68.4559" cy="139.24" r="1.39706" fill="#CCD0E8"/>
<circle opacity="0.3" cx="100.123" cy="139.24" r="1.39706" fill="#CCD0E8"/>
<circle opacity="0.3" cx="43.3088" cy="139.24" r="1.39706" fill="#CCD0E8"/>
<circle opacity="0.3" cx="74.9754" cy="139.24" r="1.39706" fill="#CCD0E8"/>
<circle opacity="0.3" cx="106.642" cy="139.24" r="1.39706" fill="#CCD0E8"/>
<circle opacity="0.3" cx="49.8285" cy="139.24" r="1.39706" fill="#CCD0E8"/>
<circle opacity="0.3" cx="81.4951" cy="139.24" r="1.39706" fill="#CCD0E8"/>
<circle opacity="0.3" cx="113.162" cy="139.24" r="1.39706" fill="#CCD0E8"/>
<circle opacity="0.3" cx="56.348" cy="139.24" r="1.39706" fill="#CCD0E8"/>
<circle opacity="0.3" cx="88.0147" cy="139.24" r="1.39706" fill="#CCD0E8"/>
<circle opacity="0.3" cx="119.681" cy="139.24" r="1.39706" fill="#CCD0E8"/>
<path d="M29.4299 28.5002C29.8471 28.5747 30.201 28.7945 30.4916 29.1596C30.7822 29.5247 30.9275 29.9383 30.9275 30.4002C30.9275 30.7951 30.8232 31.1528 30.6146 31.4732C30.4134 31.7861 30.1191 32.0357 29.7316 32.222C29.3442 32.4008 28.8934 32.4902 28.3793 32.4902H25.2722V24.7226H28.234C28.763 24.7226 29.2175 24.812 29.5975 24.9908C29.9775 25.1696 30.2644 25.4118 30.4581 25.7173C30.6518 26.0153 30.7487 26.3506 30.7487 26.7232C30.7487 27.1702 30.6295 27.5428 30.391 27.8408C30.1526 28.1389 29.8322 28.3587 29.4299 28.5002ZM26.5463 27.9861H28.1222C28.5395 27.9861 28.8636 27.893 29.0946 27.7067C29.333 27.513 29.4522 27.2373 29.4522 26.8796C29.4522 26.5295 29.333 26.2575 29.0946 26.0638C28.8636 25.8626 28.5395 25.762 28.1222 25.762H26.5463V27.9861ZM28.2675 31.4508C28.6997 31.4508 29.0387 31.3465 29.2846 31.1379C29.5305 30.9293 29.6534 30.6387 29.6534 30.2661C29.6534 29.8861 29.523 29.5844 29.2622 29.3608C29.0014 29.1373 28.655 29.0255 28.2228 29.0255H26.5463V31.4508H28.2675ZM31.8874 29.3832C31.8874 28.7647 32.0141 28.2171 32.2674 27.7402C32.5282 27.2634 32.8784 26.8945 33.318 26.6338C33.765 26.3655 34.2568 26.2314 34.7933 26.2314C35.2776 26.2314 35.6986 26.3283 36.0562 26.522C36.4213 26.7083 36.7119 26.943 36.928 27.2261V26.332H38.2133V32.4902H36.928V31.5738C36.7119 31.8644 36.4176 32.1065 36.045 32.3002C35.6725 32.494 35.2478 32.5908 34.7709 32.5908C34.2419 32.5908 33.7576 32.4567 33.318 32.1885C32.8784 31.9128 32.5282 31.5328 32.2674 31.0485C32.0141 30.5567 31.8874 30.0016 31.8874 29.3832ZM36.928 29.4055C36.928 28.9808 36.8386 28.612 36.6597 28.2991C36.4884 27.9861 36.2611 27.7477 35.978 27.5838C35.6948 27.4198 35.3893 27.3379 35.0615 27.3379C34.7337 27.3379 34.4282 27.4198 34.145 27.5838C33.8619 27.7402 33.6309 27.9749 33.4521 28.2879C33.2807 28.5934 33.195 28.9585 33.195 29.3832C33.195 29.8079 33.2807 30.1804 33.4521 30.5008C33.6309 30.8212 33.8619 31.0671 34.145 31.2385C34.4356 31.4024 34.7411 31.4844 35.0615 31.4844C35.3893 31.4844 35.6948 31.4024 35.978 31.2385C36.2611 31.0745 36.4884 30.8361 36.6597 30.5232C36.8386 30.2028 36.928 29.8302 36.928 29.4055ZM39.4621 29.4055C39.4621 28.7722 39.5887 28.2171 39.8421 27.7402C40.1028 27.2559 40.4605 26.8834 40.915 26.6226C41.3695 26.3618 41.8911 26.2314 42.4797 26.2314C43.2248 26.2314 43.8395 26.4102 44.3238 26.7679C44.8156 27.1181 45.1472 27.621 45.3185 28.2767H43.9438C43.8321 27.9712 43.6532 27.7328 43.4074 27.5614C43.1615 27.39 42.8523 27.3044 42.4797 27.3044C41.9581 27.3044 41.5409 27.4906 41.2279 27.8632C40.9225 28.2283 40.7697 28.7424 40.7697 29.4055C40.7697 30.0687 40.9225 30.5865 41.2279 30.9591C41.5409 31.3316 41.9581 31.5179 42.4797 31.5179C43.2174 31.5179 43.7054 31.1938 43.9438 30.5455H45.3185C45.1397 31.1714 44.8044 31.6706 44.3127 32.0432C43.8209 32.4083 43.2099 32.5908 42.4797 32.5908C41.8911 32.5908 41.3695 32.4604 40.915 32.1996C40.4605 31.9314 40.1028 31.5589 39.8421 31.082C39.5887 30.5977 39.4621 30.0389 39.4621 29.4055ZM49.0248 29.4167L51.8636 32.4902H50.1424L47.8624 29.8414V32.4902H46.5883V24.2196H47.8624V29.0255L50.0977 26.332H51.8636L49.0248 29.4167Z" fill="#9B9B9A"/>
<defs>
<filter id="filter0_d_29_252" x="-93.1373" y="-46.5686" width="376.275" height="402.275" filterUnits="userSpaceOnUse" color-interpolation-filters="sRGB">
<feFlood flood-opacity="0" result="BackgroundImageFix"/>
<feColorMatrix in="SourceAlpha" type="matrix" values="0 0 0 0 0 0 0 0 0 0 0 0 0 0 0 0 0 0 127 0" result="hardAlpha"/>
<feOffset dy="46.5686"/>
<feGaussianBlur stdDeviation="46.5686"/>
<feColorMatrix type="matrix" values="0 0 0 0 0 0 0 0 0 0 0 0 0 0 0 0 0 0 0.1 0"/>
<feBlend mode="normal" in2="BackgroundImageFix" result="effect1_dropShadow_29_252"/>
<feBlend mode="normal" in="SourceGraphic" in2="effect1_dropShadow_29_252" result="shape"/>
</filter>
<filter id="filter1_dddd_29_252" x="5.58825" y="73.5784" width="178.824" height="121.078" filterUnits="userSpaceOnUse" color-interpolation-filters="sRGB">
<feFlood flood-opacity="0" result="BackgroundImageFix"/>
<feColorMatrix in="SourceAlpha" type="matrix" values="0 0 0 0 0 0 0 0 0 0 0 0 0 0 0 0 0 0 127 0" result="hardAlpha"/>
<feOffset dy="0.6327"/>
<feGaussianBlur stdDeviation="0.4218"/>
<feColorMatrix type="matrix" values="0 0 0 0 0.141176 0 0 0 0 0.141176 0 0 0 0 0.133333 0 0 0 0.0278729 0"/>
<feBlend mode="normal" in2="BackgroundImageFix" result="effect1_dropShadow_29_252"/>
<feColorMatrix in="SourceAlpha" type="matrix" values="0 0 0 0 0 0 0 0 0 0 0 0 0 0 0 0 0 0 127 0" result="hardAlpha"/>
<feOffset dy="1.74933"/>
<feGaussianBlur stdDeviation="1.16622"/>
<feColorMatrix type="matrix" values="0 0 0 0 0.141176 0 0 0 0 0.141176 0 0 0 0 0.133333 0 0 0 0.04 0"/>
<feBlend mode="normal" in2="effect1_dropShadow_29_252" result="effect2_dropShadow_29_252"/>
<feColorMatrix in="SourceAlpha" type="matrix" values="0 0 0 0 0 0 0 0 0 0 0 0 0 0 0 0 0 0 127 0" result="hardAlpha"/>
<feOffset dy="4.21172"/>
<feGaussianBlur stdDeviation="2.80782"/>
<feColorMatrix type="matrix" values="0 0 0 0 0.141176 0 0 0 0 0.141176 0 0 0 0 0.133333 0 0 0 0.0521271 0"/>
<feBlend mode="normal" in2="effect2_dropShadow_29_252" result="effect3_dropShadow_29_252"/>
<feColorMatrix in="SourceAlpha" type="matrix" values="0 0 0 0 0 0 0 0 0 0 0 0 0 0 0 0 0 0 127 0" result="hardAlpha"/>
<feOffset dy="13.9706"/>
<feGaussianBlur stdDeviation="9.31373"/>
<feColorMatrix type="matrix" values="0 0 0 0 0.141176 0 0 0 0 0.141176 0 0 0 0 0.133333 0 0 0 0.08 0"/>
<feBlend mode="normal" in2="effect3_dropShadow_29_252" result="effect4_dropShadow_29_252"/>
<feBlend mode="normal" in="SourceGraphic" in2="effect4_dropShadow_29_252" result="shape"/>
</filter>
<clipPath id="clip0_29_252">
<rect width="22.3529" height="4.65686" fill="white" transform="translate(83.8235 193.725)"/>
</clipPath>
</defs>
</svg>
