<svg width="378" height="403" viewBox="0 0 378 403" fill="none" xmlns="http://www.w3.org/2000/svg">
<g filter="url(#filter0_d_29_252)">
<rect x="94" y="47" width="190" height="216" rx="30" fill="white"/>
</g>
<g clip-path="url(#clip0_29_252)">
<path fill-rule="evenodd" clip-rule="evenodd" d="M197.382 245.382C198.668 245.382 199.711 244.34 199.711 243.054C199.711 241.768 198.668 240.725 197.382 240.725C196.096 240.725 195.054 241.768 195.054 243.054C195.054 244.34 196.096 245.382 197.382 245.382Z" fill="#E1E1E1"/>
<path fill-rule="evenodd" clip-rule="evenodd" d="M189 245.382C190.286 245.382 191.328 244.34 191.328 243.054C191.328 241.768 190.286 240.725 189 240.725C187.714 240.725 186.672 241.768 186.672 243.054C186.672 244.34 187.714 245.382 189 245.382Z" fill="#E1E1E1"/>
<path fill-rule="evenodd" clip-rule="evenodd" d="M180.618 245.382C181.904 245.382 182.946 244.34 182.946 243.054C182.946 241.768 181.904 240.725 180.618 240.725C179.332 240.725 178.289 241.768 178.289 243.054C178.289 244.34 179.332 245.382 180.618 245.382Z" fill="#292E47"/>
</g>
<path d="M118.698 105.743C118.698 104.857 118.902 104.061 119.311 103.357C119.728 102.653 120.289 102.105 120.993 101.714C121.706 101.314 122.484 101.114 123.327 101.114C124.292 101.114 125.148 101.354 125.896 101.832C126.652 102.301 127.2 102.97 127.539 103.84H125.752C125.518 103.362 125.192 103.005 124.774 102.77C124.357 102.536 123.875 102.418 123.327 102.418C122.727 102.418 122.193 102.553 121.723 102.823C121.254 103.092 120.884 103.479 120.615 103.983C120.354 104.487 120.224 105.074 120.224 105.743C120.224 106.413 120.354 106.999 120.615 107.504C120.884 108.008 121.254 108.399 121.723 108.677C122.193 108.947 122.727 109.081 123.327 109.081C123.875 109.081 124.357 108.964 124.774 108.729C125.192 108.495 125.518 108.138 125.752 107.66H127.539C127.2 108.529 126.652 109.199 125.896 109.668C125.148 110.138 124.292 110.372 123.327 110.372C122.475 110.372 121.697 110.177 120.993 109.786C120.289 109.386 119.728 108.834 119.311 108.13C118.902 107.425 118.698 106.63 118.698 105.743ZM132.995 102.992C133.542 102.992 134.029 103.109 134.455 103.344C134.89 103.579 135.229 103.927 135.472 104.387C135.724 104.848 135.85 105.404 135.85 106.056V110.294H134.377V106.278C134.377 105.635 134.216 105.144 133.895 104.805C133.573 104.457 133.134 104.283 132.578 104.283C132.021 104.283 131.578 104.457 131.248 104.805C130.926 105.144 130.765 105.635 130.765 106.278V110.294H129.279V100.645H130.765V103.944C131.017 103.64 131.335 103.405 131.717 103.24C132.108 103.075 132.534 102.992 132.995 102.992ZM140.863 110.411C140.185 110.411 139.572 110.259 139.024 109.955C138.477 109.642 138.046 109.207 137.733 108.651C137.421 108.086 137.264 107.434 137.264 106.695C137.264 105.965 137.425 105.317 137.747 104.752C138.068 104.187 138.507 103.753 139.063 103.448C139.62 103.144 140.241 102.992 140.928 102.992C141.615 102.992 142.236 103.144 142.793 103.448C143.349 103.753 143.788 104.187 144.11 104.752C144.431 105.317 144.592 105.965 144.592 106.695C144.592 107.425 144.427 108.073 144.097 108.638C143.766 109.203 143.314 109.642 142.741 109.955C142.175 110.259 141.55 110.411 140.863 110.411ZM140.863 109.121C141.245 109.121 141.602 109.029 141.932 108.847C142.271 108.664 142.545 108.39 142.754 108.025C142.962 107.66 143.067 107.217 143.067 106.695C143.067 106.174 142.967 105.735 142.767 105.378C142.567 105.013 142.302 104.739 141.971 104.557C141.641 104.374 141.284 104.283 140.902 104.283C140.52 104.283 140.163 104.374 139.833 104.557C139.511 104.739 139.255 105.013 139.063 105.378C138.872 105.735 138.777 106.174 138.777 106.695C138.777 107.469 138.972 108.069 139.363 108.495C139.763 108.912 140.263 109.121 140.863 109.121ZM149.178 110.411C148.5 110.411 147.887 110.259 147.339 109.955C146.792 109.642 146.361 109.207 146.049 108.651C145.736 108.086 145.579 107.434 145.579 106.695C145.579 105.965 145.74 105.317 146.062 104.752C146.383 104.187 146.822 103.753 147.379 103.448C147.935 103.144 148.556 102.992 149.243 102.992C149.93 102.992 150.551 103.144 151.108 103.448C151.664 103.753 152.103 104.187 152.425 104.752C152.746 105.317 152.907 105.965 152.907 106.695C152.907 107.425 152.742 108.073 152.412 108.638C152.081 109.203 151.629 109.642 151.056 109.955C150.491 110.259 149.865 110.411 149.178 110.411ZM149.178 109.121C149.56 109.121 149.917 109.029 150.247 108.847C150.586 108.664 150.86 108.39 151.069 108.025C151.277 107.66 151.382 107.217 151.382 106.695C151.382 106.174 151.282 105.735 151.082 105.378C150.882 105.013 150.617 104.739 150.286 104.557C149.956 104.374 149.6 104.283 149.217 104.283C148.835 104.283 148.478 104.374 148.148 104.557C147.826 104.739 147.57 105.013 147.379 105.378C147.187 105.735 147.092 106.174 147.092 106.695C147.092 107.469 147.287 108.069 147.678 108.495C148.078 108.912 148.578 109.121 149.178 109.121ZM156.984 110.411C156.419 110.411 155.911 110.311 155.459 110.112C155.016 109.903 154.663 109.625 154.403 109.277C154.142 108.921 154.003 108.525 153.985 108.09H155.524C155.55 108.395 155.694 108.651 155.954 108.86C156.224 109.06 156.558 109.16 156.958 109.16C157.376 109.16 157.697 109.081 157.923 108.925C158.158 108.76 158.275 108.551 158.275 108.299C158.275 108.03 158.145 107.83 157.884 107.699C157.632 107.569 157.228 107.425 156.672 107.269C156.133 107.121 155.694 106.978 155.355 106.839C155.016 106.7 154.72 106.487 154.468 106.2C154.224 105.913 154.103 105.535 154.103 105.065C154.103 104.683 154.216 104.335 154.442 104.022C154.668 103.701 154.989 103.448 155.407 103.266C155.833 103.083 156.319 102.992 156.867 102.992C157.684 102.992 158.341 103.201 158.836 103.618C159.34 104.027 159.61 104.587 159.644 105.3H158.158C158.132 104.978 158.002 104.722 157.767 104.531C157.532 104.339 157.215 104.244 156.815 104.244C156.424 104.244 156.124 104.318 155.915 104.466C155.707 104.613 155.602 104.809 155.602 105.052C155.602 105.244 155.672 105.404 155.811 105.535C155.95 105.665 156.12 105.769 156.319 105.848C156.519 105.917 156.815 106.009 157.206 106.122C157.728 106.261 158.154 106.404 158.484 106.552C158.823 106.691 159.114 106.9 159.358 107.178C159.601 107.456 159.727 107.825 159.736 108.286C159.736 108.695 159.623 109.06 159.397 109.381C159.171 109.703 158.849 109.955 158.432 110.138C158.023 110.32 157.541 110.411 156.984 110.411ZM167.927 106.526C167.927 106.795 167.909 107.039 167.875 107.256H162.385C162.428 107.83 162.641 108.29 163.024 108.638C163.406 108.986 163.876 109.16 164.432 109.16C165.232 109.16 165.797 108.825 166.127 108.156H167.731C167.514 108.816 167.118 109.36 166.545 109.786C165.979 110.203 165.275 110.411 164.432 110.411C163.745 110.411 163.128 110.259 162.581 109.955C162.042 109.642 161.616 109.207 161.303 108.651C160.999 108.086 160.846 107.434 160.846 106.695C160.846 105.956 160.994 105.309 161.29 104.752C161.594 104.187 162.016 103.753 162.555 103.448C163.102 103.144 163.728 102.992 164.432 102.992C165.11 102.992 165.714 103.14 166.245 103.435C166.775 103.731 167.188 104.148 167.483 104.687C167.779 105.217 167.927 105.83 167.927 106.526ZM166.375 106.056C166.366 105.509 166.171 105.07 165.788 104.739C165.406 104.409 164.932 104.244 164.367 104.244C163.854 104.244 163.415 104.409 163.05 104.739C162.685 105.061 162.468 105.5 162.398 106.056H166.375ZM179.244 103.109L174.837 113.671H173.298L174.759 110.177L171.929 103.109H173.585L175.606 108.586L177.705 103.109H179.244ZM183.482 110.411C182.804 110.411 182.191 110.259 181.644 109.955C181.096 109.642 180.666 109.207 180.353 108.651C180.04 108.086 179.883 107.434 179.883 106.695C179.883 105.965 180.044 105.317 180.366 104.752C180.688 104.187 181.127 103.753 181.683 103.448C182.239 103.144 182.861 102.992 183.547 102.992C184.234 102.992 184.856 103.144 185.412 103.448C185.968 103.753 186.407 104.187 186.729 104.752C187.051 105.317 187.211 105.965 187.211 106.695C187.211 107.425 187.046 108.073 186.716 108.638C186.386 109.203 185.934 109.642 185.36 109.955C184.795 110.259 184.169 110.411 183.482 110.411ZM183.482 109.121C183.865 109.121 184.221 109.029 184.551 108.847C184.891 108.664 185.164 108.39 185.373 108.025C185.582 107.66 185.686 107.217 185.686 106.695C185.686 106.174 185.586 105.735 185.386 105.378C185.186 105.013 184.921 104.739 184.591 104.557C184.26 104.374 183.904 104.283 183.521 104.283C183.139 104.283 182.782 104.374 182.452 104.557C182.131 104.739 181.874 105.013 181.683 105.378C181.492 105.735 181.396 106.174 181.396 106.695C181.396 107.469 181.592 108.069 181.983 108.495C182.383 108.912 182.882 109.121 183.482 109.121ZM195.188 103.109V110.294H193.701V109.447C193.466 109.742 193.158 109.977 192.775 110.151C192.401 110.316 192.002 110.398 191.576 110.398C191.011 110.398 190.502 110.281 190.05 110.046C189.607 109.812 189.255 109.464 188.994 109.003C188.742 108.542 188.616 107.986 188.616 107.334V103.109H190.089V107.112C190.089 107.756 190.25 108.251 190.572 108.599C190.893 108.938 191.332 109.107 191.889 109.107C192.445 109.107 192.884 108.938 193.206 108.599C193.536 108.251 193.701 107.756 193.701 107.112V103.109H195.188ZM198.635 104.153C198.853 103.787 199.139 103.505 199.496 103.305C199.861 103.096 200.291 102.992 200.787 102.992V104.531H200.409C199.826 104.531 199.383 104.679 199.079 104.974C198.783 105.27 198.635 105.782 198.635 106.513V110.294H197.149V103.109H198.635V104.153ZM205.045 106.695C205.045 105.956 205.193 105.309 205.488 104.752C205.792 104.187 206.21 103.753 206.74 103.448C207.27 103.144 207.879 102.992 208.565 102.992C209.435 102.992 210.152 103.201 210.717 103.618C211.291 104.027 211.677 104.613 211.877 105.378H210.273C210.143 105.022 209.934 104.744 209.648 104.544C209.361 104.344 209 104.244 208.565 104.244C207.957 104.244 207.47 104.461 207.105 104.896C206.749 105.322 206.57 105.922 206.57 106.695C206.57 107.469 206.749 108.073 207.105 108.508C207.47 108.942 207.957 109.16 208.565 109.16C209.426 109.16 209.995 108.782 210.273 108.025H211.877C211.669 108.755 211.277 109.338 210.704 109.772C210.13 110.198 209.417 110.411 208.565 110.411C207.879 110.411 207.27 110.259 206.74 109.955C206.21 109.642 205.792 109.207 205.488 108.651C205.193 108.086 205.045 107.434 205.045 106.695ZM212.863 106.669C212.863 105.948 213.011 105.309 213.307 104.752C213.611 104.196 214.019 103.766 214.532 103.462C215.054 103.149 215.628 102.992 216.253 102.992C216.818 102.992 217.31 103.105 217.727 103.331C218.153 103.548 218.492 103.822 218.744 104.153V103.109H220.243V110.294H218.744V109.225C218.492 109.564 218.148 109.846 217.714 110.072C217.279 110.298 216.784 110.411 216.227 110.411C215.61 110.411 215.045 110.255 214.532 109.942C214.019 109.62 213.611 109.177 213.307 108.612C213.011 108.038 212.863 107.391 212.863 106.669ZM218.744 106.695C218.744 106.2 218.64 105.769 218.431 105.404C218.231 105.039 217.966 104.761 217.636 104.57C217.305 104.379 216.949 104.283 216.566 104.283C216.184 104.283 215.827 104.379 215.497 104.57C215.167 104.752 214.897 105.026 214.689 105.391C214.489 105.748 214.389 106.174 214.389 106.669C214.389 107.165 214.489 107.599 214.689 107.973C214.897 108.347 215.167 108.634 215.497 108.834C215.836 109.025 216.193 109.121 216.566 109.121C216.949 109.121 217.305 109.025 217.636 108.834C217.966 108.642 218.231 108.364 218.431 107.999C218.64 107.625 218.744 107.191 218.744 106.695ZM223.682 104.153C223.9 103.787 224.186 103.505 224.543 103.305C224.908 103.096 225.338 102.992 225.834 102.992V104.531H225.456C224.873 104.531 224.43 104.679 224.126 104.974C223.83 105.27 223.682 105.782 223.682 106.513V110.294H222.196V103.109H223.682V104.153ZM226.705 106.669C226.705 105.948 226.852 105.309 227.148 104.752C227.452 104.196 227.861 103.766 228.374 103.462C228.895 103.149 229.473 102.992 230.108 102.992C230.577 102.992 231.038 103.096 231.49 103.305C231.951 103.505 232.316 103.774 232.585 104.113V100.645H234.085V110.294H232.585V109.212C232.342 109.56 232.003 109.846 231.568 110.072C231.142 110.298 230.651 110.411 230.095 110.411C229.469 110.411 228.895 110.255 228.374 109.942C227.861 109.62 227.452 109.177 227.148 108.612C226.852 108.038 226.705 107.391 226.705 106.669ZM232.585 106.695C232.585 106.2 232.481 105.769 232.272 105.404C232.072 105.039 231.807 104.761 231.477 104.57C231.147 104.379 230.79 104.283 230.408 104.283C230.025 104.283 229.669 104.379 229.339 104.57C229.008 104.752 228.739 105.026 228.53 105.391C228.33 105.748 228.23 106.174 228.23 106.669C228.23 107.165 228.33 107.599 228.53 107.973C228.739 108.347 229.008 108.634 229.339 108.834C229.678 109.025 230.034 109.121 230.408 109.121C230.79 109.121 231.147 109.025 231.477 108.834C231.807 108.642 232.072 108.364 232.272 107.999C232.481 107.625 232.585 107.191 232.585 106.695Z" fill="#292E47"/>
<g filter="url(#filter1_dddd_29_252)">
<rect x="118.216" y="125.235" width="141.569" height="83.8235" rx="18.6275" fill="#072AC8"/>
</g>
<path d="M149.692 150.357V150.112H149.627L149.553 150.28L149.479 150.112H149.414V150.357H149.46V150.172L149.529 150.332H149.577L149.646 150.172V150.357H149.692ZM149.283 150.357V150.154H149.366V150.112H149.156V150.154H149.238V150.357H149.283Z" fill="#F79410"/>
<path d="M142.408 151.41H136.866V141.487H142.408V151.41Z" fill="#FF5F00"/>
<path d="M137.221 146.448C137.221 144.435 138.167 142.642 139.64 141.487C138.563 140.642 137.203 140.137 135.726 140.137C132.228 140.137 129.392 142.963 129.392 146.448C129.392 149.933 132.228 152.759 135.726 152.759C137.203 152.759 138.563 152.254 139.64 151.409C138.167 150.254 137.221 148.461 137.221 146.448Z" fill="#EB001B"/>
<path d="M149.883 146.448C149.883 149.933 147.047 152.759 143.549 152.759C142.072 152.759 140.712 152.254 139.634 151.409C141.108 150.254 142.054 148.461 142.054 146.448C142.054 144.435 141.108 142.642 139.634 141.487C140.712 140.642 142.072 140.137 143.549 140.137C147.047 140.137 149.883 142.963 149.883 146.448Z" fill="#F79E1B"/>
<path d="M225.652 187.804C226.308 187.237 226.824 186.773 227.199 186.411C227.582 186.042 227.899 185.66 228.152 185.263C228.405 184.867 228.531 184.471 228.531 184.075C228.531 183.665 228.432 183.344 228.234 183.112C228.043 182.88 227.739 182.764 227.322 182.764C226.919 182.764 226.605 182.893 226.38 183.153C226.161 183.406 226.045 183.747 226.031 184.177H224.904C224.925 183.399 225.157 182.805 225.601 182.395C226.052 181.978 226.622 181.77 227.312 181.77C228.057 181.77 228.637 181.975 229.054 182.385C229.477 182.794 229.689 183.341 229.689 184.024C229.689 184.515 229.563 184.99 229.31 185.448C229.064 185.899 228.767 186.305 228.419 186.667C228.077 187.022 227.64 187.435 227.107 187.907L226.646 188.316H229.894V189.29H224.915V188.439L225.652 187.804ZM231.232 182.989V181.923H233.363V189.392H232.185V182.989H231.232ZM235.413 183.768C235.454 183.132 235.696 182.637 236.14 182.282C236.591 181.927 237.164 181.749 237.861 181.749C238.339 181.749 238.752 181.835 239.101 182.005C239.449 182.176 239.712 182.408 239.89 182.702C240.067 182.996 240.156 183.327 240.156 183.696C240.156 184.119 240.043 184.481 239.818 184.782C239.593 185.082 239.323 185.284 239.009 185.386V185.427C239.412 185.55 239.726 185.776 239.951 186.103C240.176 186.424 240.289 186.838 240.289 187.343C240.289 187.746 240.197 188.105 240.013 188.419C239.828 188.733 239.555 188.982 239.193 189.167C238.831 189.344 238.397 189.433 237.892 189.433C237.154 189.433 236.546 189.245 236.068 188.87C235.597 188.487 235.344 187.941 235.31 187.23H236.437C236.464 187.592 236.604 187.89 236.857 188.122C237.11 188.347 237.451 188.46 237.882 188.46C238.298 188.46 238.619 188.347 238.845 188.122C239.07 187.89 239.183 187.592 239.183 187.23C239.183 186.752 239.029 186.414 238.722 186.216C238.421 186.011 237.957 185.909 237.328 185.909H237.062V184.946H237.339C237.892 184.939 238.312 184.847 238.599 184.669C238.892 184.492 239.039 184.212 239.039 183.829C239.039 183.501 238.933 183.242 238.722 183.05C238.51 182.852 238.209 182.753 237.82 182.753C237.438 182.753 237.141 182.852 236.929 183.05C236.717 183.242 236.591 183.481 236.55 183.768H235.413ZM241.982 185.56C241.982 184.379 242.18 183.457 242.576 182.794C242.979 182.125 243.669 181.79 244.645 181.79C245.622 181.79 246.309 182.125 246.705 182.794C247.108 183.457 247.309 184.379 247.309 185.56C247.309 186.756 247.108 187.691 246.705 188.368C246.309 189.037 245.622 189.372 244.645 189.372C243.669 189.372 242.979 189.037 242.576 188.368C242.18 187.691 241.982 186.756 241.982 185.56ZM246.162 185.56C246.162 185.007 246.124 184.539 246.049 184.157C245.981 183.774 245.837 183.464 245.619 183.225C245.4 182.979 245.076 182.856 244.645 182.856C244.215 182.856 243.891 182.979 243.672 183.225C243.454 183.464 243.307 183.774 243.232 184.157C243.163 184.539 243.129 185.007 243.129 185.56C243.129 186.134 243.163 186.616 243.232 187.005C243.3 187.394 243.443 187.709 243.662 187.948C243.887 188.187 244.215 188.306 244.645 188.306C245.076 188.306 245.4 188.187 245.619 187.948C245.844 187.709 245.991 187.394 246.059 187.005C246.128 186.616 246.162 186.134 246.162 185.56Z" fill="#CCD0E8"/>
<circle opacity="0.3" cx="130.789" cy="186.24" r="1.39706" fill="#CCD0E8"/>
<circle opacity="0.3" cx="162.456" cy="186.24" r="1.39706" fill="#CCD0E8"/>
<circle opacity="0.3" cx="194.123" cy="186.24" r="1.39706" fill="#CCD0E8"/>
<circle opacity="0.3" cx="137.309" cy="186.24" r="1.39706" fill="#CCD0E8"/>
<circle opacity="0.3" cx="168.975" cy="186.24" r="1.39706" fill="#CCD0E8"/>
<circle opacity="0.3" cx="200.642" cy="186.24" r="1.39706" fill="#CCD0E8"/>
<circle opacity="0.3" cx="143.828" cy="186.24" r="1.39706" fill="#CCD0E8"/>
<circle opacity="0.3" cx="175.495" cy="186.24" r="1.39706" fill="#CCD0E8"/>
<circle opacity="0.3" cx="207.162" cy="186.24" r="1.39706" fill="#CCD0E8"/>
<circle opacity="0.3" cx="150.348" cy="186.24" r="1.39706" fill="#CCD0E8"/>
<circle opacity="0.3" cx="182.015" cy="186.24" r="1.39706" fill="#CCD0E8"/>
<circle opacity="0.3" cx="213.681" cy="186.24" r="1.39706" fill="#CCD0E8"/>
<path d="M123.43 75.5002C123.847 75.5747 124.201 75.7945 124.492 76.1596C124.782 76.5247 124.928 76.9383 124.928 77.4002C124.928 77.7951 124.823 78.1528 124.615 78.4732C124.413 78.7861 124.119 79.0357 123.732 79.222C123.344 79.4008 122.893 79.4902 122.379 79.4902H119.272V71.7226H122.234C122.763 71.7226 123.218 71.812 123.598 71.9908C123.978 72.1696 124.264 72.4118 124.458 72.7173C124.652 73.0153 124.749 73.3506 124.749 73.7232C124.749 74.1702 124.629 74.5428 124.391 74.8408C124.153 75.1389 123.832 75.3587 123.43 75.5002ZM120.546 74.9861H122.122C122.539 74.9861 122.864 74.893 123.095 74.7067C123.333 74.513 123.452 74.2373 123.452 73.8796C123.452 73.5295 123.333 73.2575 123.095 73.0638C122.864 72.8626 122.539 72.762 122.122 72.762H120.546V74.9861ZM122.268 78.4508C122.7 78.4508 123.039 78.3465 123.285 78.1379C123.53 77.9293 123.653 77.6387 123.653 77.2661C123.653 76.8861 123.523 76.5844 123.262 76.3608C123.001 76.1373 122.655 76.0255 122.223 76.0255H120.546V78.4508H122.268ZM125.887 76.3832C125.887 75.7647 126.014 75.2171 126.267 74.7402C126.528 74.2634 126.878 73.8945 127.318 73.6338C127.765 73.3655 128.257 73.2314 128.793 73.2314C129.278 73.2314 129.699 73.3283 130.056 73.522C130.421 73.7083 130.712 73.943 130.928 74.2261V73.332H132.213V79.4902H130.928V78.5738C130.712 78.8644 130.418 79.1065 130.045 79.3002C129.672 79.494 129.248 79.5908 128.771 79.5908C128.242 79.5908 127.758 79.4567 127.318 79.1885C126.878 78.9128 126.528 78.5328 126.267 78.0485C126.014 77.5567 125.887 77.0016 125.887 76.3832ZM130.928 76.4055C130.928 75.9808 130.839 75.612 130.66 75.2991C130.488 74.9861 130.261 74.7477 129.978 74.5838C129.695 74.4198 129.389 74.3379 129.062 74.3379C128.734 74.3379 128.428 74.4198 128.145 74.5838C127.862 74.7402 127.631 74.9749 127.452 75.2879C127.281 75.5934 127.195 75.9585 127.195 76.3832C127.195 76.8079 127.281 77.1804 127.452 77.5008C127.631 77.8212 127.862 78.0671 128.145 78.2385C128.436 78.4024 128.741 78.4844 129.062 78.4844C129.389 78.4844 129.695 78.4024 129.978 78.2385C130.261 78.0745 130.488 77.8361 130.66 77.5232C130.839 77.2028 130.928 76.8302 130.928 76.4055ZM133.462 76.4055C133.462 75.7722 133.589 75.2171 133.842 74.7402C134.103 74.2559 134.46 73.8834 134.915 73.6226C135.37 73.3618 135.891 73.2314 136.48 73.2314C137.225 73.2314 137.84 73.4102 138.324 73.7679C138.816 74.1181 139.147 74.621 139.319 75.2767H137.944C137.832 74.9712 137.653 74.7328 137.407 74.5614C137.161 74.39 136.852 74.3044 136.48 74.3044C135.958 74.3044 135.541 74.4906 135.228 74.8632C134.922 75.2283 134.77 75.7424 134.77 76.4055C134.77 77.0687 134.922 77.5865 135.228 77.9591C135.541 78.3316 135.958 78.5179 136.48 78.5179C137.217 78.5179 137.705 78.1938 137.944 77.5455H139.319C139.14 78.1714 138.804 78.6706 138.313 79.0432C137.821 79.4083 137.21 79.5908 136.48 79.5908C135.891 79.5908 135.37 79.4604 134.915 79.1996C134.46 78.9314 134.103 78.5589 133.842 78.082C133.589 77.5977 133.462 77.0389 133.462 76.4055ZM143.025 76.4167L145.864 79.4902H144.142L141.862 76.8414V79.4902H140.588V71.2196H141.862V76.0255L144.098 73.332H145.864L143.025 76.4167Z" fill="#9B9B9A"/>
<defs>
<filter id="filter0_d_29_252" x="0.862747" y="0.431374" width="376.275" height="402.275" filterUnits="userSpaceOnUse" color-interpolation-filters="sRGB">
<feFlood flood-opacity="0" result="BackgroundImageFix"/>
<feColorMatrix in="SourceAlpha" type="matrix" values="0 0 0 0 0 0 0 0 0 0 0 0 0 0 0 0 0 0 127 0" result="hardAlpha"/>
<feOffset dy="46.5686"/>
<feGaussianBlur stdDeviation="46.5686"/>
<feColorMatrix type="matrix" values="0 0 0 0 0 0 0 0 0 0 0 0 0 0 0 0 0 0 0.1 0"/>
<feBlend mode="normal" in2="BackgroundImageFix" result="effect1_dropShadow_29_252"/>
<feBlend mode="normal" in="SourceGraphic" in2="effect1_dropShadow_29_252" result="shape"/>
</filter>
<filter id="filter1_dddd_29_252" x="99.5882" y="120.578" width="178.824" height="121.078" filterUnits="userSpaceOnUse" color-interpolation-filters="sRGB">
<feFlood flood-opacity="0" result="BackgroundImageFix"/>
<feColorMatrix in="SourceAlpha" type="matrix" values="0 0 0 0 0 0 0 0 0 0 0 0 0 0 0 0 0 0 127 0" result="hardAlpha"/>
<feOffset dy="0.6327"/>
<feGaussianBlur stdDeviation="0.4218"/>
<feColorMatrix type="matrix" values="0 0 0 0 0.141176 0 0 0 0 0.141176 0 0 0 0 0.133333 0 0 0 0.0278729 0"/>
<feBlend mode="normal" in2="BackgroundImageFix" result="effect1_dropShadow_29_252"/>
<feColorMatrix in="SourceAlpha" type="matrix" values="0 0 0 0 0 0 0 0 0 0 0 0 0 0 0 0 0 0 127 0" result="hardAlpha"/>
<feOffset dy="1.74933"/>
<feGaussianBlur stdDeviation="1.16622"/>
<feColorMatrix type="matrix" values="0 0 0 0 0.141176 0 0 0 0 0.141176 0 0 0 0 0.133333 0 0 0 0.04 0"/>
<feBlend mode="normal" in2="effect1_dropShadow_29_252" result="effect2_dropShadow_29_252"/>
<feColorMatrix in="SourceAlpha" type="matrix" values="0 0 0 0 0 0 0 0 0 0 0 0 0 0 0 0 0 0 127 0" result="hardAlpha"/>
<feOffset dy="4.21172"/>
<feGaussianBlur stdDeviation="2.80782"/>
<feColorMatrix type="matrix" values="0 0 0 0 0.141176 0 0 0 0 0.141176 0 0 0 0 0.133333 0 0 0 0.0521271 0"/>
<feBlend mode="normal" in2="effect2_dropShadow_29_252" result="effect3_dropShadow_29_252"/>
<feColorMatrix in="SourceAlpha" type="matrix" values="0 0 0 0 0 0 0 0 0 0 0 0 0 0 0 0 0 0 127 0" result="hardAlpha"/>
<feOffset dy="13.9706"/>
<feGaussianBlur stdDeviation="9.31373"/>
<feColorMatrix type="matrix" values="0 0 0 0 0.141176 0 0 0 0 0.141176 0 0 0 0 0.133333 0 0 0 0.08 0"/>
<feBlend mode="normal" in2="effect3_dropShadow_29_252" result="effect4_dropShadow_29_252"/>
<feBlend mode="normal" in="SourceGraphic" in2="effect4_dropShadow_29_252" result="shape"/>
</filter>
<clipPath id="clip0_29_252">
<rect width="22.3529" height="4.65686" fill="white" transform="translate(177.823 240.725)"/>
</clipPath>
</defs>
</svg>
